G04 #@! TF.GenerationSoftware,KiCad,Pcbnew,(5.1.2)-1*
G04 #@! TF.CreationDate,2019-06-23T17:44:29+01:00*
G04 #@! TF.ProjectId,daq,6461712e-6b69-4636-9164-5f7063625858,rev?*
G04 #@! TF.SameCoordinates,Original*
G04 #@! TF.FileFunction,Legend,Bot*
G04 #@! TF.FilePolarity,Positive*
%FSLAX46Y46*%
G04 Gerber Fmt 4.6, Leading zero omitted, Abs format (unit mm)*
G04 Created by KiCad (PCBNEW (5.1.2)-1) date 2019-06-23 17:44:29*
%MOMM*%
%LPD*%
G04 APERTURE LIST*
%ADD10C,0.200000*%
%ADD11C,0.300000*%
%ADD12C,0.120000*%
%ADD13C,0.150000*%
G04 APERTURE END LIST*
D10*
X94389342Y-113190328D02*
X93627438Y-113190328D01*
X94008390Y-113571280D02*
X94008390Y-112809376D01*
X93294104Y-112571280D02*
X92722676Y-112571280D01*
X93008390Y-113571280D02*
X93008390Y-112571280D01*
X92436961Y-112666519D02*
X92389342Y-112618900D01*
X92294104Y-112571280D01*
X92056009Y-112571280D01*
X91960771Y-112618900D01*
X91913152Y-112666519D01*
X91865533Y-112761757D01*
X91865533Y-112856995D01*
X91913152Y-112999852D01*
X92484580Y-113571280D01*
X91865533Y-113571280D01*
X91436961Y-113190328D02*
X90675057Y-113190328D01*
X74069342Y-112999828D02*
X73307438Y-112999828D01*
X73688390Y-113380780D02*
X73688390Y-112618876D01*
X72974104Y-112380780D02*
X72402676Y-112380780D01*
X72688390Y-113380780D02*
X72688390Y-112380780D01*
X71640771Y-112380780D02*
X71831247Y-112380780D01*
X71926485Y-112428400D01*
X71974104Y-112476019D01*
X72069342Y-112618876D01*
X72116961Y-112809352D01*
X72116961Y-113190304D01*
X72069342Y-113285542D01*
X72021723Y-113333161D01*
X71926485Y-113380780D01*
X71736009Y-113380780D01*
X71640771Y-113333161D01*
X71593152Y-113285542D01*
X71545533Y-113190304D01*
X71545533Y-112952209D01*
X71593152Y-112856971D01*
X71640771Y-112809352D01*
X71736009Y-112761733D01*
X71926485Y-112761733D01*
X72021723Y-112809352D01*
X72069342Y-112856971D01*
X72116961Y-112952209D01*
X71116961Y-112999828D02*
X70355057Y-112999828D01*
X79149342Y-112999828D02*
X78387438Y-112999828D01*
X78768390Y-113380780D02*
X78768390Y-112618876D01*
X78054104Y-112380780D02*
X77482676Y-112380780D01*
X77768390Y-113380780D02*
X77768390Y-112380780D01*
X76673152Y-112380780D02*
X77149342Y-112380780D01*
X77196961Y-112856971D01*
X77149342Y-112809352D01*
X77054104Y-112761733D01*
X76816009Y-112761733D01*
X76720771Y-112809352D01*
X76673152Y-112856971D01*
X76625533Y-112952209D01*
X76625533Y-113190304D01*
X76673152Y-113285542D01*
X76720771Y-113333161D01*
X76816009Y-113380780D01*
X77054104Y-113380780D01*
X77149342Y-113333161D01*
X77196961Y-113285542D01*
X76196961Y-112999828D02*
X75435057Y-112999828D01*
X84229342Y-113190328D02*
X83467438Y-113190328D01*
X83848390Y-113571280D02*
X83848390Y-112809376D01*
X83134104Y-112571280D02*
X82562676Y-112571280D01*
X82848390Y-113571280D02*
X82848390Y-112571280D01*
X81800771Y-112904614D02*
X81800771Y-113571280D01*
X82038866Y-112523661D02*
X82276961Y-113237947D01*
X81657914Y-113237947D01*
X81276961Y-113190328D02*
X80515057Y-113190328D01*
X89309342Y-113190328D02*
X88547438Y-113190328D01*
X88928390Y-113571280D02*
X88928390Y-112809376D01*
X88214104Y-112571280D02*
X87642676Y-112571280D01*
X87928390Y-113571280D02*
X87928390Y-112571280D01*
X87404580Y-112571280D02*
X86785533Y-112571280D01*
X87118866Y-112952233D01*
X86976009Y-112952233D01*
X86880771Y-112999852D01*
X86833152Y-113047471D01*
X86785533Y-113142709D01*
X86785533Y-113380804D01*
X86833152Y-113476042D01*
X86880771Y-113523661D01*
X86976009Y-113571280D01*
X87261723Y-113571280D01*
X87356961Y-113523661D01*
X87404580Y-113476042D01*
X86356961Y-113190328D02*
X85595057Y-113190328D01*
X99469342Y-113190328D02*
X98707438Y-113190328D01*
X99088390Y-113571280D02*
X99088390Y-112809376D01*
X98374104Y-112571280D02*
X97802676Y-112571280D01*
X98088390Y-113571280D02*
X98088390Y-112571280D01*
X96945533Y-113571280D02*
X97516961Y-113571280D01*
X97231247Y-113571280D02*
X97231247Y-112571280D01*
X97326485Y-112714138D01*
X97421723Y-112809376D01*
X97516961Y-112856995D01*
X96516961Y-113190328D02*
X95755057Y-113190328D01*
X89820595Y-170330880D02*
X89201547Y-170330880D01*
X89534880Y-170711833D01*
X89392023Y-170711833D01*
X89296785Y-170759452D01*
X89249166Y-170807071D01*
X89201547Y-170902309D01*
X89201547Y-171140404D01*
X89249166Y-171235642D01*
X89296785Y-171283261D01*
X89392023Y-171330880D01*
X89677738Y-171330880D01*
X89772976Y-171283261D01*
X89820595Y-171235642D01*
X88915833Y-170330880D02*
X88582500Y-171330880D01*
X88249166Y-170330880D01*
X88011071Y-170330880D02*
X87392023Y-170330880D01*
X87725357Y-170711833D01*
X87582500Y-170711833D01*
X87487261Y-170759452D01*
X87439642Y-170807071D01*
X87392023Y-170902309D01*
X87392023Y-171140404D01*
X87439642Y-171235642D01*
X87487261Y-171283261D01*
X87582500Y-171330880D01*
X87868214Y-171330880D01*
X87963452Y-171283261D01*
X88011071Y-171235642D01*
X93321047Y-171330880D02*
X93797238Y-171330880D01*
X93797238Y-170330880D01*
X92987714Y-170807071D02*
X92654380Y-170807071D01*
X92511523Y-171330880D02*
X92987714Y-171330880D01*
X92987714Y-170330880D01*
X92511523Y-170330880D01*
X92082952Y-171330880D02*
X92082952Y-170330880D01*
X91844857Y-170330880D01*
X91702000Y-170378500D01*
X91606761Y-170473738D01*
X91559142Y-170568976D01*
X91511523Y-170759452D01*
X91511523Y-170902309D01*
X91559142Y-171092785D01*
X91606761Y-171188023D01*
X91702000Y-171283261D01*
X91844857Y-171330880D01*
X92082952Y-171330880D01*
X91130571Y-170426119D02*
X91082952Y-170378500D01*
X90987714Y-170330880D01*
X90749619Y-170330880D01*
X90654380Y-170378500D01*
X90606761Y-170426119D01*
X90559142Y-170521357D01*
X90559142Y-170616595D01*
X90606761Y-170759452D01*
X91178190Y-171330880D01*
X90559142Y-171330880D01*
X86018547Y-171330880D02*
X86494738Y-171330880D01*
X86494738Y-170330880D01*
X85685214Y-170807071D02*
X85351880Y-170807071D01*
X85209023Y-171330880D02*
X85685214Y-171330880D01*
X85685214Y-170330880D01*
X85209023Y-170330880D01*
X84780452Y-171330880D02*
X84780452Y-170330880D01*
X84542357Y-170330880D01*
X84399500Y-170378500D01*
X84304261Y-170473738D01*
X84256642Y-170568976D01*
X84209023Y-170759452D01*
X84209023Y-170902309D01*
X84256642Y-171092785D01*
X84304261Y-171188023D01*
X84399500Y-171283261D01*
X84542357Y-171330880D01*
X84780452Y-171330880D01*
X83256642Y-171330880D02*
X83828071Y-171330880D01*
X83542357Y-171330880D02*
X83542357Y-170330880D01*
X83637595Y-170473738D01*
X83732833Y-170568976D01*
X83828071Y-170616595D01*
D11*
X102781571Y-114090142D02*
X101281571Y-114090142D01*
X102353000Y-114590142D01*
X101281571Y-115090142D01*
X102781571Y-115090142D01*
X102781571Y-115804428D02*
X101281571Y-115804428D01*
X101281571Y-116304428D02*
X101281571Y-117161571D01*
X102781571Y-116733000D02*
X101281571Y-116733000D01*
X102781571Y-119661571D02*
X102067285Y-119161571D01*
X102781571Y-118804428D02*
X101281571Y-118804428D01*
X101281571Y-119375857D01*
X101353000Y-119518714D01*
X101424428Y-119590142D01*
X101567285Y-119661571D01*
X101781571Y-119661571D01*
X101924428Y-119590142D01*
X101995857Y-119518714D01*
X102067285Y-119375857D01*
X102067285Y-118804428D01*
X102781571Y-120518714D02*
X102710142Y-120375857D01*
X102638714Y-120304428D01*
X102495857Y-120233000D01*
X102067285Y-120233000D01*
X101924428Y-120304428D01*
X101853000Y-120375857D01*
X101781571Y-120518714D01*
X101781571Y-120733000D01*
X101853000Y-120875857D01*
X101924428Y-120947285D01*
X102067285Y-121018714D01*
X102495857Y-121018714D01*
X102638714Y-120947285D01*
X102710142Y-120875857D01*
X102781571Y-120733000D01*
X102781571Y-120518714D01*
X102710142Y-122304428D02*
X102781571Y-122161571D01*
X102781571Y-121875857D01*
X102710142Y-121733000D01*
X102638714Y-121661571D01*
X102495857Y-121590142D01*
X102067285Y-121590142D01*
X101924428Y-121661571D01*
X101853000Y-121733000D01*
X101781571Y-121875857D01*
X101781571Y-122161571D01*
X101853000Y-122304428D01*
X102781571Y-122947285D02*
X101281571Y-122947285D01*
X102210142Y-123090142D02*
X102781571Y-123518714D01*
X101781571Y-123518714D02*
X102353000Y-122947285D01*
X102710142Y-124733000D02*
X102781571Y-124590142D01*
X102781571Y-124304428D01*
X102710142Y-124161571D01*
X102567285Y-124090142D01*
X101995857Y-124090142D01*
X101853000Y-124161571D01*
X101781571Y-124304428D01*
X101781571Y-124590142D01*
X101853000Y-124733000D01*
X101995857Y-124804428D01*
X102138714Y-124804428D01*
X102281571Y-124090142D01*
X101781571Y-125233000D02*
X101781571Y-125804428D01*
X101281571Y-125447285D02*
X102567285Y-125447285D01*
X102710142Y-125518714D01*
X102781571Y-125661571D01*
X102781571Y-125804428D01*
X101281571Y-127233000D02*
X101281571Y-128090142D01*
X102781571Y-127661571D02*
X101281571Y-127661571D01*
X102710142Y-129161571D02*
X102781571Y-129018714D01*
X102781571Y-128733000D01*
X102710142Y-128590142D01*
X102567285Y-128518714D01*
X101995857Y-128518714D01*
X101853000Y-128590142D01*
X101781571Y-128733000D01*
X101781571Y-129018714D01*
X101853000Y-129161571D01*
X101995857Y-129233000D01*
X102138714Y-129233000D01*
X102281571Y-128518714D01*
X102781571Y-130518714D02*
X101995857Y-130518714D01*
X101853000Y-130447285D01*
X101781571Y-130304428D01*
X101781571Y-130018714D01*
X101853000Y-129875857D01*
X102710142Y-130518714D02*
X102781571Y-130375857D01*
X102781571Y-130018714D01*
X102710142Y-129875857D01*
X102567285Y-129804428D01*
X102424428Y-129804428D01*
X102281571Y-129875857D01*
X102210142Y-130018714D01*
X102210142Y-130375857D01*
X102138714Y-130518714D01*
X102781571Y-131233000D02*
X101781571Y-131233000D01*
X101924428Y-131233000D02*
X101853000Y-131304428D01*
X101781571Y-131447285D01*
X101781571Y-131661571D01*
X101853000Y-131804428D01*
X101995857Y-131875857D01*
X102781571Y-131875857D01*
X101995857Y-131875857D02*
X101853000Y-131947285D01*
X101781571Y-132090142D01*
X101781571Y-132304428D01*
X101853000Y-132447285D01*
X101995857Y-132518714D01*
X102781571Y-132518714D01*
X105260142Y-114018714D02*
X105331571Y-114161571D01*
X105331571Y-114447285D01*
X105260142Y-114590142D01*
X105117285Y-114661571D01*
X105045857Y-114661571D01*
X104903000Y-114590142D01*
X104831571Y-114447285D01*
X104831571Y-114233000D01*
X104760142Y-114090142D01*
X104617285Y-114018714D01*
X104545857Y-114018714D01*
X104403000Y-114090142D01*
X104331571Y-114233000D01*
X104331571Y-114447285D01*
X104403000Y-114590142D01*
X105331571Y-115304428D02*
X103831571Y-115304428D01*
X105331571Y-115947285D02*
X104545857Y-115947285D01*
X104403000Y-115875857D01*
X104331571Y-115733000D01*
X104331571Y-115518714D01*
X104403000Y-115375857D01*
X104474428Y-115304428D01*
X105331571Y-116661571D02*
X104331571Y-116661571D01*
X104617285Y-116661571D02*
X104474428Y-116733000D01*
X104403000Y-116804428D01*
X104331571Y-116947285D01*
X104331571Y-117090142D01*
X105260142Y-118161571D02*
X105331571Y-118018714D01*
X105331571Y-117733000D01*
X105260142Y-117590142D01*
X105117285Y-117518714D01*
X104545857Y-117518714D01*
X104403000Y-117590142D01*
X104331571Y-117733000D01*
X104331571Y-118018714D01*
X104403000Y-118161571D01*
X104545857Y-118233000D01*
X104688714Y-118233000D01*
X104831571Y-117518714D01*
X105260142Y-119447285D02*
X105331571Y-119304428D01*
X105331571Y-119018714D01*
X105260142Y-118875857D01*
X105117285Y-118804428D01*
X104545857Y-118804428D01*
X104403000Y-118875857D01*
X104331571Y-119018714D01*
X104331571Y-119304428D01*
X104403000Y-119447285D01*
X104545857Y-119518714D01*
X104688714Y-119518714D01*
X104831571Y-118804428D01*
X104331571Y-120018714D02*
X105331571Y-120375857D01*
X104331571Y-120733000D02*
X105331571Y-120375857D01*
X105688714Y-120233000D01*
X105760142Y-120161571D01*
X105831571Y-120018714D01*
X105331571Y-121947285D02*
X104545857Y-121947285D01*
X104403000Y-121875857D01*
X104331571Y-121733000D01*
X104331571Y-121447285D01*
X104403000Y-121304428D01*
X105260142Y-121947285D02*
X105331571Y-121804428D01*
X105331571Y-121447285D01*
X105260142Y-121304428D01*
X105117285Y-121233000D01*
X104974428Y-121233000D01*
X104831571Y-121304428D01*
X104760142Y-121447285D01*
X104760142Y-121804428D01*
X104688714Y-121947285D01*
X105331571Y-122661571D02*
X104331571Y-122661571D01*
X104474428Y-122661571D02*
X104403000Y-122733000D01*
X104331571Y-122875857D01*
X104331571Y-123090142D01*
X104403000Y-123233000D01*
X104545857Y-123304428D01*
X105331571Y-123304428D01*
X104545857Y-123304428D02*
X104403000Y-123375857D01*
X104331571Y-123518714D01*
X104331571Y-123733000D01*
X104403000Y-123875857D01*
X104545857Y-123947285D01*
X105331571Y-123947285D01*
X104617285Y-125590142D02*
X104545857Y-125518714D01*
X104474428Y-125375857D01*
X104474428Y-125233000D01*
X104545857Y-125090142D01*
X104617285Y-125018714D01*
X104760142Y-124947285D01*
X104903000Y-124947285D01*
X105045857Y-125018714D01*
X105117285Y-125090142D01*
X105188714Y-125233000D01*
X105188714Y-125375857D01*
X105117285Y-125518714D01*
X105045857Y-125590142D01*
X104474428Y-125590142D02*
X105045857Y-125590142D01*
X105117285Y-125661571D01*
X105117285Y-125733000D01*
X105045857Y-125875857D01*
X104903000Y-125947285D01*
X104545857Y-125947285D01*
X104331571Y-125804428D01*
X104188714Y-125590142D01*
X104117285Y-125304428D01*
X104188714Y-125018714D01*
X104331571Y-124804428D01*
X104545857Y-124661571D01*
X104831571Y-124590142D01*
X105117285Y-124661571D01*
X105331571Y-124804428D01*
X105474428Y-125018714D01*
X105545857Y-125304428D01*
X105474428Y-125590142D01*
X105331571Y-125804428D01*
X105331571Y-126590142D02*
X104331571Y-126590142D01*
X104474428Y-126590142D02*
X104403000Y-126661571D01*
X104331571Y-126804428D01*
X104331571Y-127018714D01*
X104403000Y-127161571D01*
X104545857Y-127233000D01*
X105331571Y-127233000D01*
X104545857Y-127233000D02*
X104403000Y-127304428D01*
X104331571Y-127447285D01*
X104331571Y-127661571D01*
X104403000Y-127804428D01*
X104545857Y-127875857D01*
X105331571Y-127875857D01*
X105331571Y-128590142D02*
X104331571Y-128590142D01*
X103831571Y-128590142D02*
X103903000Y-128518714D01*
X103974428Y-128590142D01*
X103903000Y-128661571D01*
X103831571Y-128590142D01*
X103974428Y-128590142D01*
X104331571Y-129090142D02*
X104331571Y-129661571D01*
X103831571Y-129304428D02*
X105117285Y-129304428D01*
X105260142Y-129375857D01*
X105331571Y-129518714D01*
X105331571Y-129661571D01*
X105188714Y-130161571D02*
X105260142Y-130233000D01*
X105331571Y-130161571D01*
X105260142Y-130090142D01*
X105188714Y-130161571D01*
X105331571Y-130161571D01*
X105260142Y-131447285D02*
X105331571Y-131304428D01*
X105331571Y-131018714D01*
X105260142Y-130875857D01*
X105117285Y-130804428D01*
X104545857Y-130804428D01*
X104403000Y-130875857D01*
X104331571Y-131018714D01*
X104331571Y-131304428D01*
X104403000Y-131447285D01*
X104545857Y-131518714D01*
X104688714Y-131518714D01*
X104831571Y-130804428D01*
X105331571Y-132804428D02*
X103831571Y-132804428D01*
X105260142Y-132804428D02*
X105331571Y-132661571D01*
X105331571Y-132375857D01*
X105260142Y-132233000D01*
X105188714Y-132161571D01*
X105045857Y-132090142D01*
X104617285Y-132090142D01*
X104474428Y-132161571D01*
X104403000Y-132233000D01*
X104331571Y-132375857D01*
X104331571Y-132661571D01*
X104403000Y-132804428D01*
X104331571Y-134161571D02*
X105331571Y-134161571D01*
X104331571Y-133518714D02*
X105117285Y-133518714D01*
X105260142Y-133590142D01*
X105331571Y-133733000D01*
X105331571Y-133947285D01*
X105260142Y-134090142D01*
X105188714Y-134161571D01*
X103760142Y-137090142D02*
X105688714Y-135804428D01*
X105260142Y-138661571D02*
X105331571Y-138804428D01*
X105331571Y-139090142D01*
X105260142Y-139233000D01*
X105117285Y-139304428D01*
X105045857Y-139304428D01*
X104903000Y-139233000D01*
X104831571Y-139090142D01*
X104831571Y-138875857D01*
X104760142Y-138733000D01*
X104617285Y-138661571D01*
X104545857Y-138661571D01*
X104403000Y-138733000D01*
X104331571Y-138875857D01*
X104331571Y-139090142D01*
X104403000Y-139233000D01*
X105331571Y-139947285D02*
X103831571Y-139947285D01*
X104760142Y-140090142D02*
X105331571Y-140518714D01*
X104331571Y-140518714D02*
X104903000Y-139947285D01*
X103831571Y-141018714D02*
X103831571Y-141947285D01*
X104403000Y-141447285D01*
X104403000Y-141661571D01*
X104474428Y-141804428D01*
X104545857Y-141875857D01*
X104688714Y-141947285D01*
X105045857Y-141947285D01*
X105188714Y-141875857D01*
X105260142Y-141804428D01*
X105331571Y-141661571D01*
X105331571Y-141233000D01*
X105260142Y-141090142D01*
X105188714Y-141018714D01*
X104474428Y-142804428D02*
X104403000Y-142661571D01*
X104331571Y-142590142D01*
X104188714Y-142518714D01*
X104117285Y-142518714D01*
X103974428Y-142590142D01*
X103903000Y-142661571D01*
X103831571Y-142804428D01*
X103831571Y-143090142D01*
X103903000Y-143233000D01*
X103974428Y-143304428D01*
X104117285Y-143375857D01*
X104188714Y-143375857D01*
X104331571Y-143304428D01*
X104403000Y-143233000D01*
X104474428Y-143090142D01*
X104474428Y-142804428D01*
X104545857Y-142661571D01*
X104617285Y-142590142D01*
X104760142Y-142518714D01*
X105045857Y-142518714D01*
X105188714Y-142590142D01*
X105260142Y-142661571D01*
X105331571Y-142804428D01*
X105331571Y-143090142D01*
X105260142Y-143233000D01*
X105188714Y-143304428D01*
X105045857Y-143375857D01*
X104760142Y-143375857D01*
X104617285Y-143304428D01*
X104545857Y-143233000D01*
X104474428Y-143090142D01*
X105331571Y-144804428D02*
X105331571Y-143947285D01*
X105331571Y-144375857D02*
X103831571Y-144375857D01*
X104045857Y-144233000D01*
X104188714Y-144090142D01*
X104260142Y-143947285D01*
X103831571Y-146161571D02*
X103831571Y-145447285D01*
X104545857Y-145375857D01*
X104474428Y-145447285D01*
X104403000Y-145590142D01*
X104403000Y-145947285D01*
X104474428Y-146090142D01*
X104545857Y-146161571D01*
X104688714Y-146233000D01*
X105045857Y-146233000D01*
X105188714Y-146161571D01*
X105260142Y-146090142D01*
X105331571Y-145947285D01*
X105331571Y-145590142D01*
X105260142Y-145447285D01*
X105188714Y-145375857D01*
X104617285Y-147804428D02*
X104545857Y-147733000D01*
X104474428Y-147590142D01*
X104474428Y-147447285D01*
X104545857Y-147304428D01*
X104617285Y-147233000D01*
X104760142Y-147161571D01*
X104903000Y-147161571D01*
X105045857Y-147233000D01*
X105117285Y-147304428D01*
X105188714Y-147447285D01*
X105188714Y-147590142D01*
X105117285Y-147733000D01*
X105045857Y-147804428D01*
X104474428Y-147804428D02*
X105045857Y-147804428D01*
X105117285Y-147875857D01*
X105117285Y-147947285D01*
X105045857Y-148090142D01*
X104903000Y-148161571D01*
X104545857Y-148161571D01*
X104331571Y-148018714D01*
X104188714Y-147804428D01*
X104117285Y-147518714D01*
X104188714Y-147233000D01*
X104331571Y-147018714D01*
X104545857Y-146875857D01*
X104831571Y-146804428D01*
X105117285Y-146875857D01*
X105331571Y-147018714D01*
X105474428Y-147233000D01*
X105545857Y-147518714D01*
X105474428Y-147804428D01*
X105331571Y-148018714D01*
X105331571Y-148804428D02*
X104331571Y-148804428D01*
X103831571Y-148804428D02*
X103903000Y-148733000D01*
X103974428Y-148804428D01*
X103903000Y-148875857D01*
X103831571Y-148804428D01*
X103974428Y-148804428D01*
X105260142Y-150161571D02*
X105331571Y-150018714D01*
X105331571Y-149733000D01*
X105260142Y-149590142D01*
X105188714Y-149518714D01*
X105045857Y-149447285D01*
X104617285Y-149447285D01*
X104474428Y-149518714D01*
X104403000Y-149590142D01*
X104331571Y-149733000D01*
X104331571Y-150018714D01*
X104403000Y-150161571D01*
X105188714Y-150804428D02*
X105260142Y-150875857D01*
X105331571Y-150804428D01*
X105260142Y-150733000D01*
X105188714Y-150804428D01*
X105331571Y-150804428D01*
X105331571Y-152161571D02*
X104545857Y-152161571D01*
X104403000Y-152090142D01*
X104331571Y-151947285D01*
X104331571Y-151661571D01*
X104403000Y-151518714D01*
X105260142Y-152161571D02*
X105331571Y-152018714D01*
X105331571Y-151661571D01*
X105260142Y-151518714D01*
X105117285Y-151447285D01*
X104974428Y-151447285D01*
X104831571Y-151518714D01*
X104760142Y-151661571D01*
X104760142Y-152018714D01*
X104688714Y-152161571D01*
X105260142Y-153518714D02*
X105331571Y-153375857D01*
X105331571Y-153090142D01*
X105260142Y-152947285D01*
X105188714Y-152875857D01*
X105045857Y-152804428D01*
X104617285Y-152804428D01*
X104474428Y-152875857D01*
X104403000Y-152947285D01*
X104331571Y-153090142D01*
X104331571Y-153375857D01*
X104403000Y-153518714D01*
X105188714Y-154161571D02*
X105260142Y-154233000D01*
X105331571Y-154161571D01*
X105260142Y-154090142D01*
X105188714Y-154161571D01*
X105331571Y-154161571D01*
X104331571Y-155518714D02*
X105331571Y-155518714D01*
X104331571Y-154875857D02*
X105117285Y-154875857D01*
X105260142Y-154947285D01*
X105331571Y-155090142D01*
X105331571Y-155304428D01*
X105260142Y-155447285D01*
X105188714Y-155518714D01*
X105331571Y-156233000D02*
X103831571Y-156233000D01*
X104760142Y-156375857D02*
X105331571Y-156804428D01*
X104331571Y-156804428D02*
X104903000Y-156233000D01*
D12*
X87314000Y-133858000D02*
G75*
G03X87314000Y-133858000I-700000J0D01*
G01*
X69076800Y-116560600D02*
G75*
G03X69076800Y-116560600I-700000J0D01*
G01*
X59831200Y-117729000D02*
G75*
G03X59831200Y-117729000I-700000J0D01*
G01*
X59856600Y-119913400D02*
G75*
G03X59856600Y-119913400I-700000J0D01*
G01*
X66409800Y-122097800D02*
G75*
G03X66409800Y-122097800I-700000J0D01*
G01*
X59831200Y-123190000D02*
G75*
G03X59831200Y-123190000I-700000J0D01*
G01*
X77598500Y-127635000D02*
G75*
G03X77598500Y-127635000I-700000J0D01*
G01*
X75884000Y-135128000D02*
G75*
G03X75884000Y-135128000I-700000J0D01*
G01*
D13*
X88352095Y-134758380D02*
X87780666Y-134758380D01*
X88066380Y-135758380D02*
X88066380Y-134758380D01*
X87447333Y-135758380D02*
X87447333Y-134758380D01*
X87066380Y-134758380D01*
X86971142Y-134806000D01*
X86923523Y-134853619D01*
X86875904Y-134948857D01*
X86875904Y-135091714D01*
X86923523Y-135186952D01*
X86971142Y-135234571D01*
X87066380Y-135282190D01*
X87447333Y-135282190D01*
X85923523Y-135758380D02*
X86494952Y-135758380D01*
X86209238Y-135758380D02*
X86209238Y-134758380D01*
X86304476Y-134901238D01*
X86399714Y-134996476D01*
X86494952Y-135044095D01*
X85304476Y-134758380D02*
X85209238Y-134758380D01*
X85114000Y-134806000D01*
X85066380Y-134853619D01*
X85018761Y-134948857D01*
X84971142Y-135139333D01*
X84971142Y-135377428D01*
X85018761Y-135567904D01*
X85066380Y-135663142D01*
X85114000Y-135710761D01*
X85209238Y-135758380D01*
X85304476Y-135758380D01*
X85399714Y-135710761D01*
X85447333Y-135663142D01*
X85494952Y-135567904D01*
X85542571Y-135377428D01*
X85542571Y-135139333D01*
X85494952Y-134948857D01*
X85447333Y-134853619D01*
X85399714Y-134806000D01*
X85304476Y-134758380D01*
X70114895Y-117460980D02*
X69543466Y-117460980D01*
X69829180Y-118460980D02*
X69829180Y-117460980D01*
X69210133Y-118460980D02*
X69210133Y-117460980D01*
X68829180Y-117460980D01*
X68733942Y-117508600D01*
X68686323Y-117556219D01*
X68638704Y-117651457D01*
X68638704Y-117794314D01*
X68686323Y-117889552D01*
X68733942Y-117937171D01*
X68829180Y-117984790D01*
X69210133Y-117984790D01*
X67686323Y-118460980D02*
X68257752Y-118460980D01*
X67972038Y-118460980D02*
X67972038Y-117460980D01*
X68067276Y-117603838D01*
X68162514Y-117699076D01*
X68257752Y-117746695D01*
X67352990Y-117460980D02*
X66686323Y-117460980D01*
X67114895Y-118460980D01*
X60869295Y-118629380D02*
X60297866Y-118629380D01*
X60583580Y-119629380D02*
X60583580Y-118629380D01*
X59964533Y-119629380D02*
X59964533Y-118629380D01*
X59583580Y-118629380D01*
X59488342Y-118677000D01*
X59440723Y-118724619D01*
X59393104Y-118819857D01*
X59393104Y-118962714D01*
X59440723Y-119057952D01*
X59488342Y-119105571D01*
X59583580Y-119153190D01*
X59964533Y-119153190D01*
X58440723Y-119629380D02*
X59012152Y-119629380D01*
X58726438Y-119629380D02*
X58726438Y-118629380D01*
X58821676Y-118772238D01*
X58916914Y-118867476D01*
X59012152Y-118915095D01*
X57583580Y-118629380D02*
X57774057Y-118629380D01*
X57869295Y-118677000D01*
X57916914Y-118724619D01*
X58012152Y-118867476D01*
X58059771Y-119057952D01*
X58059771Y-119438904D01*
X58012152Y-119534142D01*
X57964533Y-119581761D01*
X57869295Y-119629380D01*
X57678819Y-119629380D01*
X57583580Y-119581761D01*
X57535961Y-119534142D01*
X57488342Y-119438904D01*
X57488342Y-119200809D01*
X57535961Y-119105571D01*
X57583580Y-119057952D01*
X57678819Y-119010333D01*
X57869295Y-119010333D01*
X57964533Y-119057952D01*
X58012152Y-119105571D01*
X58059771Y-119200809D01*
X60894695Y-120813780D02*
X60323266Y-120813780D01*
X60608980Y-121813780D02*
X60608980Y-120813780D01*
X59989933Y-121813780D02*
X59989933Y-120813780D01*
X59608980Y-120813780D01*
X59513742Y-120861400D01*
X59466123Y-120909019D01*
X59418504Y-121004257D01*
X59418504Y-121147114D01*
X59466123Y-121242352D01*
X59513742Y-121289971D01*
X59608980Y-121337590D01*
X59989933Y-121337590D01*
X58466123Y-121813780D02*
X59037552Y-121813780D01*
X58751838Y-121813780D02*
X58751838Y-120813780D01*
X58847076Y-120956638D01*
X58942314Y-121051876D01*
X59037552Y-121099495D01*
X57561361Y-120813780D02*
X58037552Y-120813780D01*
X58085171Y-121289971D01*
X58037552Y-121242352D01*
X57942314Y-121194733D01*
X57704219Y-121194733D01*
X57608980Y-121242352D01*
X57561361Y-121289971D01*
X57513742Y-121385209D01*
X57513742Y-121623304D01*
X57561361Y-121718542D01*
X57608980Y-121766161D01*
X57704219Y-121813780D01*
X57942314Y-121813780D01*
X58037552Y-121766161D01*
X58085171Y-121718542D01*
X67447895Y-122998180D02*
X66876466Y-122998180D01*
X67162180Y-123998180D02*
X67162180Y-122998180D01*
X66543133Y-123998180D02*
X66543133Y-122998180D01*
X66162180Y-122998180D01*
X66066942Y-123045800D01*
X66019323Y-123093419D01*
X65971704Y-123188657D01*
X65971704Y-123331514D01*
X66019323Y-123426752D01*
X66066942Y-123474371D01*
X66162180Y-123521990D01*
X66543133Y-123521990D01*
X65019323Y-123998180D02*
X65590752Y-123998180D01*
X65305038Y-123998180D02*
X65305038Y-122998180D01*
X65400276Y-123141038D01*
X65495514Y-123236276D01*
X65590752Y-123283895D01*
X64162180Y-123331514D02*
X64162180Y-123998180D01*
X64400276Y-122950561D02*
X64638371Y-123664847D01*
X64019323Y-123664847D01*
X60869295Y-124090380D02*
X60297866Y-124090380D01*
X60583580Y-125090380D02*
X60583580Y-124090380D01*
X59964533Y-125090380D02*
X59964533Y-124090380D01*
X59583580Y-124090380D01*
X59488342Y-124138000D01*
X59440723Y-124185619D01*
X59393104Y-124280857D01*
X59393104Y-124423714D01*
X59440723Y-124518952D01*
X59488342Y-124566571D01*
X59583580Y-124614190D01*
X59964533Y-124614190D01*
X58440723Y-125090380D02*
X59012152Y-125090380D01*
X58726438Y-125090380D02*
X58726438Y-124090380D01*
X58821676Y-124233238D01*
X58916914Y-124328476D01*
X59012152Y-124376095D01*
X58107390Y-124090380D02*
X57488342Y-124090380D01*
X57821676Y-124471333D01*
X57678819Y-124471333D01*
X57583580Y-124518952D01*
X57535961Y-124566571D01*
X57488342Y-124661809D01*
X57488342Y-124899904D01*
X57535961Y-124995142D01*
X57583580Y-125042761D01*
X57678819Y-125090380D01*
X57964533Y-125090380D01*
X58059771Y-125042761D01*
X58107390Y-124995142D01*
X78636595Y-128535380D02*
X78065166Y-128535380D01*
X78350880Y-129535380D02*
X78350880Y-128535380D01*
X77731833Y-129535380D02*
X77731833Y-128535380D01*
X77350880Y-128535380D01*
X77255642Y-128583000D01*
X77208023Y-128630619D01*
X77160404Y-128725857D01*
X77160404Y-128868714D01*
X77208023Y-128963952D01*
X77255642Y-129011571D01*
X77350880Y-129059190D01*
X77731833Y-129059190D01*
X76208023Y-129535380D02*
X76779452Y-129535380D01*
X76493738Y-129535380D02*
X76493738Y-128535380D01*
X76588976Y-128678238D01*
X76684214Y-128773476D01*
X76779452Y-128821095D01*
X75827071Y-128630619D02*
X75779452Y-128583000D01*
X75684214Y-128535380D01*
X75446119Y-128535380D01*
X75350880Y-128583000D01*
X75303261Y-128630619D01*
X75255642Y-128725857D01*
X75255642Y-128821095D01*
X75303261Y-128963952D01*
X75874690Y-129535380D01*
X75255642Y-129535380D01*
X76445904Y-136028380D02*
X75874476Y-136028380D01*
X76160190Y-137028380D02*
X76160190Y-136028380D01*
X75541142Y-137028380D02*
X75541142Y-136028380D01*
X75160190Y-136028380D01*
X75064952Y-136076000D01*
X75017333Y-136123619D01*
X74969714Y-136218857D01*
X74969714Y-136361714D01*
X75017333Y-136456952D01*
X75064952Y-136504571D01*
X75160190Y-136552190D01*
X75541142Y-136552190D01*
X74398285Y-136456952D02*
X74493523Y-136409333D01*
X74541142Y-136361714D01*
X74588761Y-136266476D01*
X74588761Y-136218857D01*
X74541142Y-136123619D01*
X74493523Y-136076000D01*
X74398285Y-136028380D01*
X74207809Y-136028380D01*
X74112571Y-136076000D01*
X74064952Y-136123619D01*
X74017333Y-136218857D01*
X74017333Y-136266476D01*
X74064952Y-136361714D01*
X74112571Y-136409333D01*
X74207809Y-136456952D01*
X74398285Y-136456952D01*
X74493523Y-136504571D01*
X74541142Y-136552190D01*
X74588761Y-136647428D01*
X74588761Y-136837904D01*
X74541142Y-136933142D01*
X74493523Y-136980761D01*
X74398285Y-137028380D01*
X74207809Y-137028380D01*
X74112571Y-136980761D01*
X74064952Y-136933142D01*
X74017333Y-136837904D01*
X74017333Y-136647428D01*
X74064952Y-136552190D01*
X74112571Y-136504571D01*
X74207809Y-136456952D01*
M02*
