M48
; DRILL file {KiCad (5.1.2)-1} date 2019-06-23 17:44:32
; FORMAT={-:-/ absolute / inch / decimal}
; #@! TF.CreationDate,2019-06-23T17:44:32+01:00
; #@! TF.GenerationSoftware,Kicad,Pcbnew,(5.1.2)-1
; #@! TF.FileFunction,Plated,1,4,PTH
FMAT,2
INCH
T1C0.0079
T2C0.0118
T3C0.0157
T4C0.0295
T5C0.0315
T6C0.0354
T7C0.0394
T8C0.0433
T9C0.1260
%
G90
G05
T1
X2.7927Y-5.7047
X2.7927Y-5.748
X2.7927Y-5.7913
X2.836Y-5.7047
X2.836Y-5.748
X2.836Y-5.7913
X2.8793Y-5.7047
X2.8793Y-5.748
X2.8793Y-5.7913
T2
X2.2225Y-4.2225
X2.2225Y-4.2624
X2.2225Y-4.3822
X2.2225Y-4.4221
X2.2225Y-4.4621
X2.2225Y-4.502
X2.2225Y-4.5419
X2.2225Y-4.5819
X2.2225Y-4.6218
X2.2225Y-4.6617
X2.2225Y-4.7016
X2.2225Y-4.7416
X2.2225Y-4.7815
X2.2225Y-4.8214
X2.2225Y-4.8614
X2.2225Y-4.9013
X2.2225Y-4.9412
X2.2225Y-4.9811
X2.2225Y-5.0211
X2.2225Y-5.061
X2.2225Y-5.1009
X2.2225Y-5.1408
X2.2225Y-5.1808
X2.2225Y-5.2207
X2.2225Y-5.2606
X2.2225Y-5.3006
X2.2225Y-5.3405
X2.2225Y-5.3804
X2.2225Y-5.4203
X2.2225Y-5.4603
X2.2225Y-5.5002
X2.2225Y-5.5401
X2.2225Y-5.58
X2.2225Y-5.6176
X2.2225Y-5.6599
X2.2225Y-5.6998
X2.2225Y-5.7398
X2.2225Y-5.779
X2.2225Y-5.8196
X2.2225Y-5.8595
X2.2225Y-5.8995
X2.2225Y-5.9394
X2.2225Y-5.9793
X2.2225Y-6.0192
X2.2225Y-6.0592
X2.2225Y-6.0991
X2.2225Y-6.139
X2.2225Y-6.179
X2.2225Y-6.2189
X2.2225Y-6.2588
X2.2225Y-6.2987
X2.2225Y-6.3387
X2.2225Y-6.3786
X2.2225Y-6.4185
X2.2225Y-6.4585
X2.2225Y-6.4984
X2.2225Y-6.5383
X2.2225Y-6.5782
X2.2225Y-6.6182
X2.2225Y-6.6581
X2.2225Y-6.698
X2.2225Y-6.7379
X2.2225Y-6.7779
X2.2225Y-6.8178
X2.2225Y-6.8977
X2.2225Y-6.9376
X2.2225Y-6.9775
X2.2624Y-4.2225
X2.2624Y-6.9775
X2.285Y-5.66
X2.285Y-5.865
X2.3023Y-4.2225
X2.328Y-6.1569
X2.3752Y-6.1569
X2.3821Y-4.2225
X2.3821Y-6.9775
X2.39Y-5.8125
X2.408Y-5.84
X2.422Y-4.2225
X2.422Y-6.9775
X2.4619Y-4.2225
X2.4619Y-6.9775
X2.4933Y-6.2435
X2.5018Y-4.2225
X2.5018Y-6.9775
X2.5052Y-5.9522
X2.5417Y-4.2225
X2.5417Y-6.9775
X2.576Y-5.9246
X2.5816Y-4.2225
X2.5816Y-6.9775
X2.5975Y-5.6425
X2.6115Y-6.1254
X2.6215Y-4.2225
X2.6215Y-6.9775
X2.6477Y-5.8507
X2.6587Y-6.1569
X2.6614Y-4.2225
X2.6614Y-6.9775
X2.6878Y-5.6545
X2.6902Y-5.8183
X2.7013Y-4.2225
X2.7013Y-6.9775
X2.702Y-5.8459
X2.7412Y-4.2225
X2.7412Y-6.9775
X2.745Y-5.985
X2.7712Y-5.8903
X2.7807Y-6.2475
X2.7811Y-4.2225
X2.7811Y-6.9775
X2.8032Y-5.2479
X2.8183Y-5.2025
X2.82Y-5.273
X2.821Y-4.2225
X2.821Y-6.9775
X2.825Y-5.108
X2.8516Y-5.5703
X2.8609Y-4.2225
X2.8609Y-6.9775
X2.875Y-4.59
X2.9008Y-4.2225
X2.9008Y-6.9775
X2.9025Y-4.5425
X2.923Y-5.433
X2.9311Y-5.5294
X2.9366Y-5.8216
X2.9407Y-4.2225
X2.9407Y-6.9775
X2.9422Y-4.8183
X2.9425Y-5.855
X2.9625Y-4.5449
X2.98Y-4.5075
X2.9806Y-4.2225
X2.9806Y-6.9775
X2.9812Y-5.8006
X2.9859Y-5.6634
X2.998Y-5.085
X3.0205Y-4.2225
X3.0205Y-6.9775
X3.025Y-5.0714
X3.0275Y-5.025
X3.03Y-5.59
X3.0447Y-5.413
X3.0604Y-4.2225
X3.0604Y-6.9775
X3.0721Y-5.4128
X3.076Y-5.5428
X3.08Y-5.8183
X3.0975Y-5.5225
X3.1003Y-4.2225
X3.1003Y-6.9775
X3.1036Y-5.7947
X3.1056Y-5.9345
X3.1075Y-5.4168
X3.13Y-4.5066
X3.1402Y-4.2225
X3.1402Y-6.9775
X3.18Y-4.5057
X3.1801Y-4.2225
X3.1801Y-6.9775
X3.202Y-6.0093
X3.2199Y-4.2225
X3.2199Y-6.9775
X3.236Y-4.906
X3.2571Y-5.4207
X3.2598Y-4.2225
X3.2598Y-6.9775
X3.2709Y-5.3931
X3.2709Y-5.9955
X3.2997Y-4.2225
X3.2997Y-6.9775
X3.3024Y-5.3931
X3.305Y-6.58
X3.3101Y-5.7309
X3.3122Y-5.7042
X3.328Y-4.5073
X3.3339Y-5.3931
X3.3396Y-4.2225
X3.3407Y-6.9775
X3.3674Y-5.3931
X3.3795Y-4.2225
X3.3806Y-6.9775
X3.385Y-4.505
X3.385Y-6.585
X3.391Y-5.527
X3.41Y-5.27
X3.4194Y-4.2225
X3.4194Y-6.9775
X3.4225Y-6.0086
X3.455Y-6.58
X3.4593Y-4.2225
X3.4593Y-6.9775
X3.4629Y-5.1778
X3.4658Y-5.279
X3.4697Y-5.3794
X3.4728Y-5.2365
X3.473Y-6.348
X3.4737Y-5.4207
X3.4855Y-5.7672
X3.4855Y-5.8164
X3.4992Y-4.2225
X3.5012Y-6.9775
X3.5018Y-5.2024
X3.51Y-4.9475
X3.513Y-5.3577
X3.517Y-5.6648
X3.5202Y-5.2214
X3.5209Y-6.2672
X3.5275Y-4.505
X3.5288Y-5.5152
X3.5307Y-6.5802
X3.5391Y-4.2225
X3.5391Y-6.9775
X3.55Y-4.41
X3.5561Y-5.7757
X3.5681Y-5.7514
X3.579Y-4.2225
X3.58Y-6.9775
X3.5878Y-5.8813
X3.6154Y-5.7002
X3.6189Y-4.2225
X3.6189Y-6.9775
X3.6272Y-5.0428
X3.6323Y-5.396
X3.6354Y-5.5064
X3.6508Y-5.8813
X3.6588Y-4.2225
X3.6588Y-6.9775
X3.6784Y-5.713
X3.6785Y-4.8056
X3.681Y-6.091
X3.681Y-6.1304
X3.681Y-6.1697
X3.681Y-6.2091
X3.688Y-4.941
X3.6902Y-5.4207
X3.6902Y-5.4522
X3.6905Y-5.3915
X3.6941Y-5.7593
X3.6987Y-4.2225
X3.6987Y-6.9775
X3.7125Y-4.975
X3.7144Y-5.3739
X3.7204Y-6.091
X3.7204Y-6.1304
X3.7204Y-6.1697
X3.7204Y-6.2091
X3.7335Y-4.5624
X3.7374Y-5.8026
X3.7375Y-6.0275
X3.7386Y-4.2225
X3.7386Y-6.9775
X3.7414Y-5.5467
X3.7414Y-5.8892
X3.7475Y-4.8025
X3.7493Y-5.2239
X3.7493Y-5.5073
X3.75Y-5.07
X3.7657Y-4.7225
X3.7785Y-4.2225
X3.7785Y-6.9775
X3.8184Y-4.2225
X3.8184Y-6.9775
X3.8583Y-4.2225
X3.8583Y-6.9775
X3.878Y-6.265
X3.887Y-6.5664
X3.8982Y-4.2225
X3.8982Y-6.9775
X3.9381Y-4.2225
X3.9381Y-6.9775
X3.9579Y-5.7317
X3.9609Y-5.6806
X3.9625Y-5.92
X3.9625Y-5.9725
X3.97Y-5.1825
X3.97Y-5.4275
X3.9725Y-5.2325
X3.975Y-5.4775
X3.978Y-4.2225
X3.978Y-6.9775
X4.0179Y-4.2225
X4.0179Y-6.9775
X4.0977Y-4.2225
X4.0977Y-6.9775
X4.1376Y-4.2225
X4.1376Y-6.9775
X4.145Y-4.61
X4.145Y-5.3825
X4.1455Y-4.846
X4.1485Y-5.626
X4.1495Y-5.127
X4.15Y-5.875
X4.1775Y-4.2225
X4.1775Y-4.2624
X4.1775Y-4.3822
X4.1775Y-4.4221
X4.1775Y-4.4621
X4.1775Y-4.502
X4.1775Y-4.5419
X4.1775Y-4.5818
X4.1775Y-4.6218
X4.1775Y-4.6617
X4.1775Y-4.7016
X4.1775Y-4.7416
X4.1775Y-4.7815
X4.1775Y-4.8214
X4.1775Y-4.8613
X4.1775Y-4.9013
X4.1775Y-4.9412
X4.1775Y-4.9811
X4.1775Y-5.0211
X4.1775Y-5.061
X4.1775Y-5.1009
X4.1775Y-5.1408
X4.1775Y-5.1808
X4.1775Y-5.2207
X4.1775Y-5.2606
X4.1775Y-5.3005
X4.1775Y-5.3405
X4.1775Y-5.3804
X4.1775Y-5.4203
X4.1775Y-5.4603
X4.1775Y-5.5002
X4.1775Y-5.5401
X4.1775Y-5.58
X4.1775Y-5.62
X4.1775Y-5.6599
X4.1775Y-5.6998
X4.1775Y-5.7397
X4.1775Y-5.7797
X4.1775Y-5.8196
X4.1775Y-5.8595
X4.1775Y-5.8995
X4.1775Y-5.9394
X4.1775Y-5.9793
X4.1775Y-6.0192
X4.1775Y-6.0592
X4.1775Y-6.0991
X4.1775Y-6.139
X4.1775Y-6.1789
X4.1775Y-6.2189
X4.1775Y-6.2588
X4.1775Y-6.2987
X4.1775Y-6.3387
X4.1775Y-6.3786
X4.1775Y-6.4185
X4.1775Y-6.4584
X4.1775Y-6.4984
X4.1775Y-6.5383
X4.1775Y-6.5782
X4.1775Y-6.6182
X4.1775Y-6.6581
X4.1775Y-6.698
X4.1775Y-6.7379
X4.1775Y-6.7779
X4.1775Y-6.8178
X4.1775Y-6.8976
X4.1775Y-6.9376
X4.1775Y-6.9775
X2.7926Y-6.4424
X2.8221Y-6.4424
X2.8516Y-6.4424
X3.3691Y-6.2713
X3.3986Y-6.2713
X3.4281Y-6.2713
X2.4284Y-6.4306
X2.4579Y-6.4306
X2.4874Y-6.4306
T3
X2.328Y-4.635
X2.328Y-4.85
X2.329Y-4.721
X2.501Y-4.764
X2.587Y-4.807
X2.692Y-4.589
X2.816Y-5.053
X3.2729Y-5.8026
X3.2729Y-5.842
X3.2729Y-5.8813
X3.3122Y-5.8026
X3.3122Y-5.842
X3.3122Y-5.8813
X3.3516Y-5.8026
X3.3516Y-5.842
X3.3516Y-5.8813
T4
X3.79Y-6.7337
X3.8687Y-6.7337
T5
X3.1941Y-5.5821
X3.1941Y-5.6609
X3.2729Y-5.5821
X3.2729Y-5.6609
X3.3516Y-5.5821
X3.3516Y-5.6609
X3.4304Y-5.5821
X3.4304Y-5.6609
T6
X3.1351Y-6.1491
X3.1351Y-6.2475
X3.1351Y-6.3459
X3.265Y-6.1491
X3.265Y-6.2475
X3.265Y-6.3459
T7
X2.92Y-4.62
X2.92Y-4.72
X3.02Y-4.62
X3.02Y-4.72
X3.12Y-4.62
X3.12Y-4.72
X3.322Y-4.628
X3.322Y-4.728
X3.422Y-4.628
X3.422Y-4.728
X3.522Y-4.628
X3.522Y-4.728
X2.8012Y-5.9365
X2.9012Y-5.9365
X3.0012Y-5.9365
X2.5524Y-4.2908
X2.6524Y-4.2908
T8
X2.802Y-4.34
X2.902Y-4.34
X3.002Y-4.34
X3.102Y-4.34
X3.202Y-4.34
X3.302Y-4.34
X3.402Y-4.34
X3.502Y-4.34
X3.602Y-4.34
X3.702Y-4.34
X3.802Y-4.34
X3.902Y-4.34
X2.9855Y-6.8597
X3.0855Y-6.8597
X3.1855Y-6.8597
X3.2855Y-6.8597
X3.3855Y-6.8597
X3.4855Y-6.8597
X2.5091Y-6.86
X2.6091Y-6.86
X2.7091Y-6.86
X2.8091Y-6.86
T9
X4.075Y-4.325
X4.075Y-6.875
X2.325Y-4.325
X2.325Y-6.875
T0
M30
