G04 #@! TF.GenerationSoftware,KiCad,Pcbnew,(5.1.2)-1*
G04 #@! TF.CreationDate,2019-06-23T17:44:29+01:00*
G04 #@! TF.ProjectId,daq,6461712e-6b69-4636-9164-5f7063625858,rev?*
G04 #@! TF.SameCoordinates,Original*
G04 #@! TF.FileFunction,Soldermask,Bot*
G04 #@! TF.FilePolarity,Negative*
%FSLAX46Y46*%
G04 Gerber Fmt 4.6, Leading zero omitted, Abs format (unit mm)*
G04 Created by KiCad (PCBNEW (5.1.2)-1) date 2019-06-23 17:44:29*
%MOMM*%
%LPD*%
G04 APERTURE LIST*
%ADD10O,1.800000X1.800000*%
%ADD11R,1.800000X1.800000*%
%ADD12C,2.300000*%
%ADD13R,2.300000X2.300000*%
%ADD14C,0.700000*%
%ADD15C,1.500000*%
%ADD16R,1.500000X1.500000*%
%ADD17R,1.450000X1.450000*%
%ADD18O,1.450000X1.450000*%
%ADD19C,1.100000*%
%ADD20C,5.100000*%
%ADD21R,1.300000X1.850000*%
%ADD22O,1.300000X1.850000*%
G04 APERTURE END LIST*
D10*
X71151000Y-150786000D03*
X73691000Y-150786000D03*
D11*
X76231000Y-150786000D03*
D12*
X88531000Y-174236000D03*
X85991000Y-174236000D03*
X83451000Y-174236000D03*
X80911000Y-174236000D03*
X78371000Y-174236000D03*
D13*
X75831000Y-174236000D03*
D12*
X71351000Y-174244000D03*
X68811000Y-174244000D03*
X66271000Y-174244000D03*
D13*
X63731000Y-174244000D03*
D14*
X62431000Y-163336000D03*
X61681000Y-163336000D03*
X63181000Y-163336000D03*
X71681000Y-163636000D03*
X70931000Y-163636000D03*
X72431000Y-163636000D03*
D15*
X82931000Y-156186000D03*
X82931000Y-158686000D03*
X82931000Y-161186000D03*
X79631000Y-156186000D03*
X79631000Y-158686000D03*
D16*
X79631000Y-161186000D03*
D14*
X87074038Y-159291508D03*
X85574038Y-159291508D03*
X86324038Y-159291508D03*
D11*
X64831000Y-108986000D03*
D10*
X67371000Y-108986000D03*
D17*
X87131000Y-141786000D03*
D18*
X87131000Y-143786000D03*
X85131000Y-141786000D03*
X85131000Y-143786000D03*
X83131000Y-141786000D03*
X83131000Y-143786000D03*
X81131000Y-141786000D03*
X81131000Y-143786000D03*
D13*
X99110800Y-110236000D03*
D12*
X96570800Y-110236000D03*
X94030800Y-110236000D03*
X91490800Y-110236000D03*
X88950800Y-110236000D03*
X86410800Y-110236000D03*
X83870800Y-110236000D03*
X81330800Y-110236000D03*
X78790800Y-110236000D03*
X76250800Y-110236000D03*
X73710800Y-110236000D03*
X71170800Y-110236000D03*
D19*
X62057400Y-133024600D03*
X62057400Y-137424600D03*
X86614000Y-133858000D03*
X68376800Y-116560600D03*
X59131200Y-117729000D03*
X59156600Y-119913400D03*
X65709800Y-122097800D03*
X59131200Y-123190000D03*
X76898500Y-127635000D03*
X75184000Y-135128000D03*
D20*
X59055000Y-109855000D03*
X103505000Y-109855000D03*
X103505000Y-174625000D03*
D11*
X84378800Y-120091200D03*
D10*
X84378800Y-117551200D03*
X86918800Y-120091200D03*
X86918800Y-117551200D03*
X89458800Y-120091200D03*
X89458800Y-117551200D03*
D21*
X96266000Y-171036000D03*
D22*
X98266000Y-171036000D03*
D11*
X74168000Y-119888000D03*
D10*
X74168000Y-117348000D03*
X76708000Y-119888000D03*
X76708000Y-117348000D03*
X79248000Y-119888000D03*
X79248000Y-117348000D03*
D20*
X59055000Y-174625000D03*
M02*
